<svg width="21" height="21" viewBox="0 0 21 21" fill="none" xmlns="http://www.w3.org/2000/svg">
<path d="M10.5 2.63063C13.17 2.63063 13.4867 2.64062 14.5417 2.68895C17.2517 2.81229 18.5175 4.09812 18.6408 6.78813C18.6892 7.8423 18.6983 8.15896 18.6983 10.8289C18.6983 13.4998 18.6883 13.8156 18.6408 14.8698C18.5167 17.5573 17.2542 18.8456 14.5417 18.9689C13.4867 19.0173 13.1717 19.0273 10.5 19.0273C7.83 19.0273 7.51333 19.0173 6.45917 18.9689C3.7425 18.8448 2.48333 17.5531 2.36 14.8689C2.31167 13.8148 2.30167 13.4989 2.30167 10.8281C2.30167 8.15812 2.3125 7.84229 2.36 6.78729C2.48417 4.09812 3.74667 2.81146 6.45917 2.68813C7.51417 2.64062 7.83 2.63063 10.5 2.63063ZM10.5 0.828125C7.78417 0.828125 7.44417 0.839792 6.3775 0.888125C2.74583 1.05479 0.7275 3.06979 0.560833 6.70479C0.511667 7.77229 0.5 8.1123 0.5 10.8281C0.5 13.5439 0.511667 13.8848 0.56 14.9514C0.726667 18.5831 2.74167 20.6014 6.37667 20.7681C7.44417 20.8164 7.78417 20.8281 10.5 20.8281C13.2158 20.8281 13.5567 20.8164 14.6233 20.7681C18.2517 20.6014 20.275 18.5864 20.4392 14.9514C20.4883 13.8848 20.5 13.5439 20.5 10.8281C20.5 8.1123 20.4883 7.77229 20.44 6.70563C20.2767 3.0773 18.2592 1.05563 14.6242 0.888958C13.5567 0.839792 13.2158 0.828125 10.5 0.828125ZM10.5 5.69312C7.66417 5.69312 5.365 7.9923 5.365 10.8281C5.365 13.6639 7.66417 15.9639 10.5 15.9639C13.3358 15.9639 15.635 13.6648 15.635 10.8281C15.635 7.9923 13.3358 5.69312 10.5 5.69312ZM10.5 14.1614C8.65917 14.1614 7.16667 12.6698 7.16667 10.8281C7.16667 8.9873 8.65917 7.49479 10.5 7.49479C12.3408 7.49479 13.8333 8.9873 13.8333 10.8281C13.8333 12.6698 12.3408 14.1614 10.5 14.1614ZM15.8383 4.29063C15.175 4.29063 14.6375 4.82812 14.6375 5.49062C14.6375 6.15312 15.175 6.69063 15.8383 6.69063C16.5008 6.69063 17.0375 6.15312 17.0375 5.49062C17.0375 4.82812 16.5008 4.29063 15.8383 4.29063Z" fill="white"/>
</svg>
