<svg width="161" height="20" viewBox="0 0 161 20" fill="none" xmlns="http://www.w3.org/2000/svg">
<path fill-rule="evenodd" clip-rule="evenodd" d="M86.8014 0.240057C85.8976 0.707861 85.5971 1.68656 86.0014 2.84618C86.2484 3.55453 86.7923 3.8529 87.8373 3.8529C89.1281 3.8529 89.5857 3.42203 89.68 2.11808C89.7446 1.22475 89.7122 1.10213 89.2872 0.634321C88.6862 -0.027051 87.6387 -0.193245 86.8014 0.240057ZM148.59 0.810072C148.546 0.924593 148.529 4.91793 148.552 9.68425L148.594 18.3503H150.295H151.996L152.041 16.395L152.087 14.4399L152.796 13.7432L153.506 13.0467L153.897 13.6737C154.112 14.0186 154.829 15.2291 155.491 16.3636L156.693 18.4264L158.597 18.4288C159.872 18.4305 160.5 18.3726 160.5 18.2534C160.5 18.1556 159.512 16.4316 158.305 14.4225L156.11 10.7694L156.576 10.2674C158.639 8.04581 160.338 6.05748 160.338 5.86537C160.338 5.67828 159.962 5.6347 158.351 5.6347H156.364L154.261 7.90569L152.158 10.1767L152.077 5.43547L151.996 0.694255L150.333 0.64809C149.093 0.613588 148.649 0.654893 148.59 0.810072ZM9.93969 1.48051C9.31202 1.77354 8.22967 2.77686 5.13051 5.93858C1.57214 9.56876 1.09268 10.1208 0.781514 10.9448C0.353726 12.0777 0.415764 13.3313 0.952079 14.3934C1.40254 15.2858 5.01291 18.9846 5.8902 19.4527C6.37387 19.7109 6.82547 19.7986 7.67198 19.7991C9.02613 19.7997 9.59095 19.5459 10.7553 18.4135L11.5707 17.6204L12.3709 18.4327C13.2672 19.3428 14.4724 19.8901 15.5747 19.8875C16.8306 19.8846 17.7967 19.2634 19.8637 17.1298C22.2068 14.7112 22.5127 14.2267 22.6169 12.7707C22.7518 10.8844 22.4596 10.4443 18.1683 6.07092C16.1408 4.00468 14.2254 2.12439 13.9116 1.8926C12.7134 1.0072 11.2734 0.857856 9.93969 1.48051ZM12.3994 2.88895C12.8919 3.07247 18.1197 8.18608 18.1197 8.48461C18.1197 8.77926 16.409 10.3082 15.9506 10.4232C15.3453 10.5752 14.7272 10.3835 14.0281 9.82712C12.2277 8.39439 10.5758 8.52754 8.74688 10.253L7.64914 11.2884L6.29077 9.92269L4.93225 8.55718L5.40701 8.02734C6.99684 6.25315 10.1765 3.13808 10.5876 2.9518C11.179 2.68388 11.7921 2.66266 12.3994 2.88895ZM41.8578 3.60151C41.7172 4.72615 41.2992 5.26117 40.3796 5.49281L39.663 5.67309V6.99843C39.663 7.8132 39.7378 8.39844 39.8574 8.51798C39.9643 8.62489 40.4693 8.71236 40.9797 8.71236H41.9077L41.9597 12.1545C42.0077 15.3245 42.0396 15.6488 42.3645 16.2555C43.2356 17.8831 44.7874 18.6449 47.0584 18.5599L48.3289 18.5123L48.3753 17.0332L48.4216 15.5542L47.3595 15.4864C45.5613 15.3719 45.3423 14.8972 45.3362 11.1016L45.3323 8.71236L46.6686 8.70993C47.4037 8.70847 48.0992 8.64757 48.2144 8.57451C48.3652 8.47895 48.4106 8.05974 48.3764 7.07861L48.3289 5.7157L46.8306 5.66904L45.3323 5.62256V4.17071V2.71903H43.6501H41.968L41.8578 3.60151ZM31.5209 5.47612C30.774 5.66548 29.7155 6.18755 29.0164 6.71156C28.4235 7.15604 27.6038 8.45108 27.7214 8.75739C27.7641 8.86916 28.35 9.20252 29.023 9.4983L30.2468 10.0362L30.9459 9.3091C32.4002 7.79668 34.6578 7.97696 35.1175 9.64198C35.2073 9.96707 35.2644 10.2491 35.2447 10.2687C35.2248 10.2884 34.1165 10.4953 32.7816 10.7287C30.0683 11.203 28.9908 11.6156 28.1177 12.5144C27.36 13.2947 27.1407 13.9849 27.2178 15.3478C27.2994 16.7922 27.8286 17.5955 29.1147 18.227C29.916 18.6206 30.2097 18.6741 31.564 18.6725C32.8252 18.671 33.2541 18.6025 33.9417 18.2929C34.403 18.0853 34.9133 17.768 35.0756 17.5878C35.3679 17.2631 35.3712 17.265 35.4515 17.8052L35.5325 18.3503L37.1118 18.3966L38.6911 18.4429V13.7989C38.6911 10.6563 38.6283 8.94529 38.4967 8.50632C38.196 7.50219 36.9106 6.20504 35.8074 5.79215C34.7578 5.39918 32.4857 5.23169 31.5209 5.47612ZM54.3222 5.52893C52.323 6.05067 50.7266 7.34831 49.8212 9.18713C49.3306 10.184 49.3008 10.3466 49.3008 12.033C49.3008 13.7288 49.3285 13.878 49.8349 14.9064C50.5432 16.3454 51.5985 17.3734 53.1064 18.0935C54.2686 18.6487 54.3972 18.6739 56.023 18.6657C57.3796 18.6589 57.904 18.5853 58.6146 18.3023C60.4905 17.5554 62.0868 15.8631 62.6144 14.062C62.9496 12.9173 62.9496 11.1487 62.6144 10.004C62.0843 8.19402 60.4662 6.48462 58.6146 5.77871C57.5072 5.35626 55.4436 5.23623 54.3222 5.52893ZM69.7514 5.56975C69.3193 5.70257 68.7386 6.05035 68.4246 6.36411L67.8666 6.9223L67.8166 6.31892L67.7665 5.7157H66.1467H64.5269V12.033V18.3503L66.2682 18.3963L68.0095 18.4423L68.013 14.4277C68.0163 10.8345 68.0488 10.3421 68.3242 9.73544C68.6856 8.93962 69.3272 8.55038 70.2772 8.55038C71.1417 8.55038 71.8214 8.91338 72.1777 9.56552C72.4262 10.02 72.4706 10.6401 72.5143 14.2602L72.5648 18.4313H74.2415H75.9183L75.9729 14.2602C76.0328 9.67858 76.0889 9.40483 77.0868 8.81538C78.0398 8.25233 79.6667 8.63996 80.1881 9.55402C80.3425 9.82469 80.4231 11.0852 80.4819 14.1388L80.5629 18.3503H82.2637H83.9645V13.6361V8.9218L83.3976 7.8179C82.9714 6.98806 82.6392 6.58262 82.0598 6.18544C80.2229 4.92636 77.604 5.10178 75.8995 6.5985L75.302 7.12316L74.5736 6.48187C73.364 5.41732 71.4342 5.05222 69.7514 5.56975ZM96.1321 5.48179C94.3468 5.92676 92.4735 7.46883 91.7207 9.11278C89.535 13.8872 93.1243 19.0803 98.3571 18.7147C100.575 18.5599 102.506 17.4591 103.38 15.8516C103.934 14.8328 103.932 14.8291 102.2 14.0732L100.998 13.5485L100.347 14.3101C99.5975 15.1873 98.934 15.5156 97.9105 15.5156C96.0132 15.5156 94.7433 14.1193 94.7433 12.033C94.7433 8.65729 98.3115 7.29486 100.441 9.8579L100.999 10.5298L102.2 10.009C103.923 9.26278 103.938 9.23961 103.38 8.21443C102.824 7.19022 101.719 6.27567 100.446 5.78486C99.3934 5.37877 97.1715 5.22278 96.1321 5.48179ZM129.724 5.56003C127.14 6.2815 125.243 8.40735 124.887 10.9801C124.268 15.4626 127.635 19.0211 132.201 18.7092C134.64 18.5426 136.771 17.1097 137.856 14.9064C138.362 13.878 138.39 13.7288 138.39 12.033C138.39 10.3372 138.362 10.188 137.856 9.15959C137.152 7.72994 136.09 6.69083 134.619 5.9922C133.613 5.51451 133.229 5.42251 132.026 5.37132C131.083 5.33131 130.319 5.39384 129.724 5.56003ZM145.598 5.58611C144.721 5.90359 144.206 6.25639 143.797 6.82025L143.33 7.4651V6.54407V5.62304L141.751 5.66937L140.172 5.7157V12.033V18.3503H141.872H143.573L143.654 14.3817C143.727 10.7904 143.766 10.3609 144.059 9.86324C144.579 8.98044 145.13 8.6696 146.361 8.56382L147.461 8.46939L147.507 6.97106L147.554 5.47272L146.697 5.48552C146.226 5.49248 145.731 5.53784 145.598 5.58611ZM86.0631 5.83767C86.0204 5.94927 86.0043 8.81036 86.0278 12.1955L86.0702 18.3503H87.771H89.4718V12.8141C89.4718 7.45052 89.4613 7.26359 89.133 6.82074C88.5505 6.0348 87.808 5.6347 86.9321 5.6347C86.4477 5.6347 86.1109 5.71343 86.0631 5.83767ZM104.222 5.78049C104.172 5.86067 105.091 8.7399 106.262 12.1788L108.393 18.4313H109.912H111.432L111.721 17.7429C111.88 17.3641 112.55 15.5461 113.209 13.7024C113.869 11.8589 114.446 10.3881 114.492 10.4341C114.538 10.4799 115.205 12.2799 115.974 14.4339L117.373 18.3503H118.95H120.526L122.614 12.2933C123.763 8.96198 124.702 6.09862 124.702 5.93016C124.702 5.64572 124.577 5.62709 122.961 5.66969L121.22 5.7157L119.976 9.36029C119.292 11.3648 118.724 12.9684 118.714 12.9239C118.703 12.8793 118.096 11.2393 117.365 9.2793L116.034 5.7157L114.477 5.66953L112.92 5.62353L111.562 9.26342C110.816 11.2655 110.16 12.8534 110.104 12.7922C110.048 12.731 109.477 11.0956 108.835 9.15781L107.668 5.6347H105.99C105.067 5.6347 104.272 5.70031 104.222 5.78049ZM57.9202 9.14178C58.7619 9.8221 59.1166 10.4922 59.2151 11.5885C59.3228 12.7891 59.0549 13.7521 58.408 14.489C57.7646 15.2216 57.0813 15.5156 56.0217 15.5156C54.0747 15.5156 52.8872 14.1927 52.8781 12.0131C52.8739 11.012 52.9374 10.7545 53.3566 10.0693C54.03 8.96894 54.9431 8.5094 56.3004 8.5878C57.1324 8.63591 57.4131 8.73196 57.9202 9.14178ZM133.201 8.91937C133.578 9.13303 134.046 9.61136 134.335 10.0785C134.763 10.7713 134.826 11.0214 134.821 12.0204C134.813 14.0759 133.768 15.3557 131.993 15.4842C130.764 15.5729 130.035 15.3151 129.34 14.5461C127.787 12.8267 128.268 9.79456 130.248 8.81814C131.034 8.43084 132.422 8.47862 133.201 8.91937ZM7.47193 13.4579L10.3973 16.5027L9.68425 17.229C8.8716 18.0573 8.06834 18.3645 7.16109 18.1943C6.65118 18.0987 6.19261 17.7362 4.63291 16.1959C2.7371 14.3234 2.08367 13.3872 2.08367 12.5436C2.08367 11.8686 2.52328 10.9629 3.1759 10.2931L3.76648 9.68701L4.15653 10.0502C4.37115 10.2497 5.86299 11.7834 7.47193 13.4579ZM20.8111 11.4204C21.4173 12.8298 20.9561 13.7819 18.5037 16.1846C15.3762 19.2488 15.1571 19.1965 10.5853 14.2946L8.84018 12.4234L9.30895 11.9238C10.6633 10.4807 11.6462 10.177 12.6289 10.898C14.9347 12.5894 16.5786 12.5034 18.4375 10.5943L19.3222 9.68555L19.9546 10.2923C20.3025 10.626 20.6879 11.1337 20.8111 11.4204ZM35.1511 13.668C35.049 14.7898 34.5428 15.4647 33.4666 15.9144C31.5945 16.6966 29.8906 15.2895 31.1659 14.0142C31.4872 13.6928 31.94 13.5315 33.2311 13.2786C34.1405 13.1005 34.9575 12.9728 35.0466 12.995C35.1357 13.0174 35.1826 13.3201 35.1511 13.668Z" fill="white"/>
</svg>
