<svg width="21" height="18" viewBox="0 0 21 18" fill="none" xmlns="http://www.w3.org/2000/svg">
<path d="M20.5 2.87729C19.7642 3.20394 18.9733 3.42394 18.1433 3.52311C18.9908 3.01561 19.6417 2.21145 19.9475 1.25312C19.155 1.72312 18.2767 2.06479 17.3417 2.24896C16.5942 1.45145 15.5267 0.953125 14.3467 0.953125C11.6975 0.953125 9.75083 3.42477 10.3492 5.9906C6.94 5.81977 3.91667 4.18645 1.8925 1.70396C0.8175 3.54812 1.335 5.9606 3.16167 7.18226C2.49 7.16059 1.85667 6.97642 1.30417 6.66893C1.25917 8.56975 2.62167 10.3481 4.595 10.7439C4.0175 10.9006 3.385 10.9372 2.74167 10.8139C3.26333 12.4439 4.77833 13.6297 6.575 13.663C4.85 15.0155 2.67667 15.6197 0.5 15.363C2.31583 16.5272 4.47333 17.2064 6.79 17.2064C14.4083 17.2064 18.7125 10.7722 18.4525 5.00143C19.2542 4.42227 19.95 3.69977 20.5 2.87729Z" fill="white"/>
</svg>
